<svg width="514" height="326" viewBox="0 0 514 326" fill="none" xmlns="http://www.w3.org/2000/svg">
<rect x="1" y="1" width="512" height="324" rx="14" stroke="currentColor" stroke-width="2"/>
<circle cx="44" cy="43" r="31" stroke="currentColor" stroke-width="2"/>
<rect x="55" y="112" width="78" height="69" rx="12" stroke="currentColor" stroke-width="2"/>
<rect x="385" y="156" width="117" height="139" rx="12" stroke="currentColor" stroke-width="2"/>
<rect x="20" y="94" width="26" height="211" stroke="currentColor" stroke-width="2"/>
<rect x="20" y="95" width="26" height="4" fill="currentColor"/>
<rect x="20" y="101" width="26" height="4" fill="currentColor"/>
<rect x="20" y="117" width="26" height="4" fill="currentColor"/>
<rect x="20" y="125" width="26" height="4" fill="currentColor"/>
<rect x="20" y="131" width="26" height="6" fill="currentColor"/>
<rect x="20" y="139" width="26" height="3" fill="currentColor"/>
<rect x="20" y="144" width="26" height="2" fill="currentColor"/>
<rect x="20" y="148" width="26" height="2" fill="currentColor"/>
<rect x="20" y="153" width="26" height="7" fill="currentColor"/>
<rect x="20" y="162" width="26" height="2" fill="currentColor"/>
<rect x="20" y="166" width="26" height="5" fill="currentColor"/>
<rect x="20" y="173" width="26" height="2" fill="currentColor"/>
<rect x="20" y="178" width="26" height="2" fill="currentColor"/>
<rect x="20" y="182" width="26" height="5" fill="currentColor"/>
<rect x="20" y="190" width="26" height="5" fill="currentColor"/>
<rect x="20" y="196" width="26" height="6" fill="currentColor"/>
<rect x="20" y="205" width="26" height="3" fill="currentColor"/>
<rect x="20" y="210" width="26" height="1" fill="currentColor"/>
<rect x="20" y="214" width="26" height="5" fill="currentColor"/>
<rect x="20" y="222" width="26" height="2" fill="currentColor"/>
<rect x="20" y="226" width="26" height="2" fill="currentColor"/>
<rect x="20" y="230" width="26" height="5" fill="currentColor"/>
<rect x="20" y="238" width="26" height="5" fill="currentColor"/>
<rect x="20" y="244" width="26" height="6" fill="currentColor"/>
<rect x="20" y="253" width="26" height="2" fill="currentColor"/>
<rect x="20" y="258" width="26" height="2" fill="currentColor"/>
<rect x="20" y="262" width="26" height="6" fill="currentColor"/>
<rect x="20" y="269" width="26" height="2" fill="currentColor"/>
<rect x="20" y="273" width="26" height="3" fill="currentColor"/>
<rect x="20" y="278" width="26" height="5" fill="currentColor"/>
<rect x="20" y="285" width="26" height="2" fill="currentColor"/>
<rect x="20" y="289" width="26" height="5" fill="currentColor"/>
<rect x="20" y="296" width="26" height="2" fill="currentColor"/>
<rect x="20" y="301" width="26" height="2" fill="currentColor"/>
<rect x="20" y="108" width="26" height="2" fill="currentColor"/>
<rect x="20" y="112" width="26" height="2" fill="currentColor"/>
</svg>
