<?xml version="1.0" standalone="no"?>
<!DOCTYPE svg PUBLIC "-//W3C//DTD SVG 20010904//EN"
 "http://www.w3.org/TR/2001/REC-SVG-20010904/DTD/svg10.dtd">
<svg version="1.0" xmlns="http://www.w3.org/2000/svg"
 width="256.000000pt" height="254.000000pt" viewBox="0 0 256.000000 254.000000"
 preserveAspectRatio="xMidYMid meet">
<metadata>
Created by potrace 1.16, written by Peter Selinger 2001-2019
</metadata>
<g transform="translate(0.000000,254.000000) scale(0.100000,-0.100000)"
fill="#000000" stroke="none">
<path d="M822 1718 c-1 -412 1 -548 10 -548 6 0 9 -3 6 -6 -13 -13 -153 -25
-293 -25 -135 -1 -187 3 -250 17 l-20 5 20 -16 c19 -15 16 -16 -40 -11 -57 5
-59 4 -30 -9 41 -19 5 -19 -40 -1 -19 8 -35 13 -35 11 0 -8 109 -65 190 -100
125 -54 223 -74 423 -87 246 -16 303 -6 587 94 112 40 305 132 316 150 5 8 18
20 29 27 19 12 18 12 -5 7 -23 -4 -23 -3 -6 7 38 23 86 69 81 77 -5 8 28 43
70 75 18 13 18 14 1 9 -20 -8 60 76 109 114 l30 23 -32 -20 c-43 -29 -54 -26
-18 5 20 17 24 22 10 17 -18 -6 -18 -5 -6 10 22 28 4 20 -107 -48 -100 -60
-182 -101 -182 -91 0 2 48 31 108 64 117 66 262 158 262 167 0 4 -10 -1 -22
-9 -36 -26 -46 -18 -13 10 l30 26 -45 -25 c-25 -13 -99 -53 -165 -89 -66 -36
-162 -88 -213 -115 -50 -27 -89 -53 -85 -58 5 -4 3 -5 -4 -1 -7 4 -34 -4 -60
-17 -124 -62 -382 -152 -505 -177 -108 -21 -97 -77 -101 543 l-2 542 -3 -547z
m1128 -113 c0 -2 -10 -10 -22 -16 -21 -11 -22 -11 -9 4 13 16 31 23 31 12z
m-30 -80 c0 -2 -10 -10 -22 -16 -21 -11 -22 -11 -9 4 13 16 31 23 31 12z
m-145 -21 c-24 -19 -131 -74 -142 -74 -4 0 28 21 72 45 84 47 104 55 70 29z
m106 -32 c-38 -26 -107 -66 -96 -55 21 22 99 73 109 72 6 0 0 -8 -13 -17z
m-256 -81 c-27 -27 -208 -111 -238 -110 -26 0 -19 5 43 28 41 15 102 41 135
59 65 33 74 37 60 23z m105 -16 c-7 -8 -18 -15 -24 -15 -6 0 -2 7 8 15 25 19
32 19 16 0z"/>
<path d="M840 2250 c0 -5 4 -10 9 -10 6 0 13 5 16 10 3 6 -1 10 -9 10 -9 0
-16 -4 -16 -10z"/>
<path d="M2125 2250 c3 -5 10 -10 16 -10 5 0 9 5 9 10 0 6 -7 10 -16 10 -8 0
-12 -4 -9 -10z"/>
<path d="M2163 2175 c0 -33 2 -45 4 -27 2 18 2 45 0 60 -2 15 -4 0 -4 -33z"/>
<path d="M2163 2040 c0 -36 2 -50 4 -32 2 17 2 47 0 65 -2 17 -4 3 -4 -33z"/>
<path d="M1147 1973 c-4 -3 -6 -162 -5 -352 l3 -346 2 337 c3 303 5 337 20
340 14 3 14 4 1 15 -8 7 -18 10 -21 6z"/>
<path d="M2120 1959 c0 -5 11 -9 25 -9 14 0 25 2 25 4 0 2 -11 6 -25 8 -14 3
-25 1 -25 -3z"/>
<path d="M1121 1924 c0 -11 3 -14 6 -6 3 7 2 16 -1 19 -3 4 -6 -2 -5 -13z"/>
<path d="M2194 1714 c-97 -72 -126 -98 -79 -69 85 51 192 135 172 135 -2 0
-45 -30 -93 -66z"/>
<path d="M2089 1703 c-13 -17 -13 -17 6 -3 11 8 22 16 24 17 2 2 0 3 -6 3 -6
0 -17 -8 -24 -17z"/>
<path d="M2146 1605 c-17 -13 -33 -23 -37 -22 -11 3 -69 -36 -69 -46 0 -5 21
4 48 18 52 29 112 75 97 75 -5 -1 -23 -12 -39 -25z"/>
<path d="M1115 1253 c-18 -14 -18 -15 -2 -9 10 3 23 6 28 6 5 0 9 5 9 10 0 14
-12 12 -35 -7z"/>
<path d="M1145 605 c0 -198 1 -280 2 -183 2 97 2 259 0 360 -1 101 -2 21 -2
-177z"/>
<path d="M1048 943 c-21 -2 -38 -9 -38 -14 0 -5 10 -7 23 -4 12 3 32 6 44 8
12 2 26 6 29 10 4 4 1 6 -7 5 -8 -1 -31 -3 -51 -5z"/>
<path d="M828 923 c7 -3 16 -2 19 1 4 3 -2 6 -13 5 -11 0 -14 -3 -6 -6z"/>
<path d="M948 923 c7 -3 16 -2 19 1 4 3 -2 6 -13 5 -11 0 -14 -3 -6 -6z"/>
<path d="M824 570 c0 -179 2 -252 3 -162 2 89 2 235 0 325 -1 89 -3 16 -3
-163z"/>
<path d="M903 233 c37 -2 97 -2 135 0 37 2 6 3 -68 3 -74 0 -105 -1 -67 -3z"/>
</g>
</svg>
