<svg data-v-f24104b1="" fill="none" viewBox="0 0 129 32" height="32px" width="129px" xmlns="http://www.w3.org/2000/svg">
<path xmlns="http://www.w3.org/2000/svg" d="M19.7241 30.8802C19.7941 30.8802 19.8783 30.8763 19.9777 30.8686C20.0771 30.8609 20.1834 30.8442 20.2962 30.8197C20.409 30.7949 20.5257 30.7601 20.6466 30.7138C20.7672 30.6679 20.8852 30.6062 21.0001 30.5277C21.1155 30.4492 21.2244 30.3527 21.3268 30.2386C21.4296 30.1241 21.52 29.9873 21.5977 29.8269C21.6755 29.6669 21.7365 29.4817 21.7805 29.2711C21.8246 29.0605 21.8466 28.8199 21.8466 28.5485C21.8466 28.1904 21.8086 27.8709 21.733 27.5895C21.6574 27.3082 21.536 27.0715 21.3692 26.8789C21.2024 26.6863 20.985 26.5397 20.7175 26.4389C20.45 26.3381 20.1259 26.2875 19.7444 26.2875H18.458V30.8802H19.7241ZM19.6528 25.293C20.1946 25.293 20.6747 25.3577 21.0935 25.4864C21.5118 25.6155 21.8648 25.8089 22.1513 26.0675C22.4378 26.3265 22.6556 26.6512 22.8047 27.0419C22.9537 27.4326 23.0281 27.8902 23.0281 28.4142C23.0259 28.9653 22.9598 29.4555 22.8297 29.8839C22.7001 30.3132 22.4987 30.6735 22.2256 30.966C21.9525 31.258 21.6047 31.4806 21.1812 31.6329C20.7581 31.7851 20.2521 31.8614 19.6631 31.8614H17.2666V25.293H19.6528Z" fill="#F38220"></path>
<path xmlns="http://www.w3.org/2000/svg" d="M28.0387 31.8613H26.8467V25.2933H28.0387V31.8613Z" fill="#F38220"></path>
<path xmlns="http://www.w3.org/2000/svg" d="M35.1251 31.9805C34.5832 31.9805 34.1096 31.8943 33.7034 31.7214C33.2972 31.549 32.958 31.311 32.6862 31.0078C32.4144 30.7042 32.21 30.3474 32.0735 29.9361C31.9369 29.5252 31.8687 29.0814 31.8687 28.604C31.8687 28.2815 31.9006 27.9719 31.965 27.6751C32.0294 27.3783 32.124 27.1017 32.2494 26.8453C32.3747 26.5888 32.5307 26.3559 32.7165 26.1466C32.9027 25.9369 33.1175 25.7577 33.3612 25.6089C33.6053 25.46 33.878 25.3451 34.1805 25.2645C34.483 25.1838 34.8136 25.1435 35.1726 25.1435C35.5473 25.1435 35.8956 25.1907 36.2184 25.2846C36.5412 25.3786 36.8277 25.5196 37.0783 25.7079C37.3289 25.8962 37.5376 26.1321 37.7044 26.4151C37.8717 26.6986 37.9875 27.0284 38.0532 27.4049H36.8311C36.7857 27.1806 36.7149 26.9876 36.6181 26.8251C36.5209 26.6626 36.4007 26.53 36.2573 26.4271C36.1142 26.3238 35.95 26.2479 35.7646 26.1985C35.5797 26.1492 35.3766 26.1243 35.1554 26.1243C34.9138 26.1243 34.6939 26.1557 34.4955 26.217C34.2967 26.2787 34.12 26.3641 33.9657 26.4739C33.811 26.5837 33.6766 26.714 33.563 26.8654C33.4489 27.0168 33.3547 27.1815 33.2804 27.359C33.2056 27.5374 33.1499 27.7257 33.1127 27.9251C33.0756 28.1246 33.0566 28.3274 33.0566 28.5333C33.0591 28.7576 33.076 28.9746 33.1075 29.1851C33.1391 29.3957 33.1892 29.593 33.2584 29.7765C33.3271 29.9601 33.4148 30.1278 33.5224 30.2787C33.6295 30.4297 33.7596 30.5596 33.913 30.6686C34.0668 30.7771 34.2432 30.8616 34.4432 30.922C34.6429 30.9825 34.8702 31.013 35.1251 31.013C35.4073 31.013 35.6605 30.9641 35.8852 30.8667C36.1095 30.7694 36.3013 30.6394 36.4608 30.4769C36.6194 30.3148 36.7434 30.1278 36.8311 29.9159C36.9193 29.7041 36.9677 29.4853 36.9767 29.2589H34.9557V28.2648H38.0769V31.8595H37.2442L37.0951 30.9825C36.9802 31.1348 36.8458 31.272 36.6924 31.3942C36.539 31.5164 36.3752 31.6207 36.2015 31.7081C36.0278 31.7956 35.8489 31.863 35.6653 31.9097C35.4812 31.9569 35.301 31.9805 35.1251 31.9805Z" fill="#F38220"></path>
<path xmlns="http://www.w3.org/2000/svg" d="M43.2941 31.8613H42.1021V25.2933H43.2941V31.8613Z" fill="#F38220"></path>
<path xmlns="http://www.w3.org/2000/svg" d="M46.8877 26.2878V25.2933H52.0874V26.2878H50.0767V31.8613H48.885V26.2878H46.8877Z" fill="#F38220"></path>
<path xmlns="http://www.w3.org/2000/svg" d="M58.5556 29.009L57.6655 26.5966L56.7952 29.009H58.5556ZM58.3387 25.2929L60.9824 31.8613H59.6389L58.9549 30.0164H56.3756L55.7019 31.8613H54.4526L57.0354 25.2929H58.3387Z" fill="#F38220"></path>
<path xmlns="http://www.w3.org/2000/svg" d="M65.6022 25.2933V30.8805H68.8257L68.8326 31.8613H64.4102V25.2933H65.6022Z" fill="#F38220"></path>
<path xmlns="http://www.w3.org/2000/svg" d="M80.9663 29.009L80.0761 26.5966L79.2058 29.009H80.9663ZM80.7493 25.2929L83.3931 31.8613H82.0496L81.3655 30.0164H78.7862L78.1125 31.8613H76.8633L79.4461 25.2929H80.7493Z" fill="#F38220"></path>
<path xmlns="http://www.w3.org/2000/svg" d="M87.6163 29.5506C87.6232 29.8306 87.679 30.0643 87.784 30.2526C87.889 30.4409 88.0247 30.5914 88.1919 30.7046C88.3587 30.8178 88.5462 30.8985 88.7536 30.9465C88.9615 30.995 89.1711 31.0186 89.3832 31.0186C89.566 31.0186 89.7467 31.004 89.9251 30.9748C90.1032 30.9456 90.263 30.8942 90.4039 30.8204C90.5452 30.7462 90.6589 30.6476 90.7457 30.5232C90.8326 30.3988 90.8762 30.2427 90.8762 30.0545C90.8719 29.8846 90.8295 29.741 90.7492 29.6243C90.6692 29.5081 90.5582 29.4103 90.416 29.3306C90.2738 29.2512 90.1049 29.1843 89.9096 29.1307C89.7147 29.0771 89.5008 29.0278 89.2683 28.9827C89.0674 28.945 88.8664 28.9034 88.6659 28.8584C88.465 28.8138 88.2727 28.7593 88.0886 28.6958C87.9045 28.6319 87.733 28.556 87.574 28.4685C87.4149 28.381 87.2767 28.2743 87.1591 28.1477C87.042 28.0217 86.9495 27.8724 86.8817 27.7013C86.8139 27.5298 86.7802 27.3286 86.7802 27.0979C86.7802 26.8762 86.8134 26.675 86.88 26.4932C86.9465 26.3118 87.0386 26.1488 87.1561 26.0043C87.2732 25.8598 87.4128 25.7341 87.574 25.6265C87.7356 25.5188 87.9114 25.43 88.102 25.3593C88.2926 25.2889 88.4948 25.2362 88.7083 25.2015C88.9213 25.1667 89.1374 25.1496 89.3565 25.1496C89.7199 25.1496 90.0517 25.2002 90.3534 25.3005C90.6545 25.4013 90.9155 25.5446 91.1368 25.729C91.358 25.9138 91.5352 26.1372 91.6683 26.3993C91.8014 26.6613 91.8813 26.9525 91.9086 27.2729H90.7712C90.7578 27.1048 90.7137 26.9508 90.6394 26.811C90.5647 26.6707 90.4644 26.5507 90.3378 26.4495C90.2116 26.3487 90.0617 26.2702 89.888 26.2144C89.7138 26.1583 89.5211 26.1304 89.3089 26.1304C89.1417 26.1304 88.9788 26.1458 88.8198 26.1776C88.6607 26.2089 88.5186 26.2612 88.3933 26.3341C88.2679 26.4066 88.1668 26.5022 88.0903 26.621C88.0134 26.7398 87.975 26.886 87.975 27.061C87.975 27.2068 88.019 27.3278 88.1072 27.4238C88.1953 27.5203 88.3137 27.6018 88.4624 27.6691C88.6115 27.736 88.7848 27.7935 88.9822 27.8403C89.1797 27.8874 89.3867 27.9325 89.6032 27.9749C89.8089 28.0152 90.012 28.0594 90.2129 28.1074C90.4134 28.1555 90.6048 28.2138 90.7863 28.2824C90.9683 28.3506 91.1355 28.4329 91.2893 28.529C91.4427 28.6255 91.5758 28.743 91.6886 28.882C91.8014 29.0209 91.89 29.1843 91.9544 29.3726C92.0187 29.5604 92.0507 29.7804 92.0507 30.0309C92.0507 30.2663 92.014 30.4782 91.941 30.6677C91.8675 30.8569 91.7672 31.025 91.6398 31.1712C91.5119 31.3183 91.3619 31.4444 91.1895 31.5495C91.0167 31.6546 90.8317 31.7408 90.6342 31.8081C90.4368 31.8754 90.2302 31.9247 90.0146 31.956C89.7994 31.9874 89.5855 32.0019 89.3733 31.9998C88.9693 31.9998 88.5925 31.9548 88.2429 31.8651C87.8929 31.7755 87.5882 31.6331 87.3285 31.4371C87.0692 31.2407 86.8644 30.9881 86.7145 30.6776C86.5641 30.3675 86.4867 29.9914 86.4824 29.5506H87.6163Z" fill="#F38220"></path>
<path xmlns="http://www.w3.org/2000/svg" d="M96.5587 29.5506C96.5656 29.8306 96.6213 30.0643 96.7264 30.2526C96.8314 30.4409 96.967 30.5914 97.1343 30.7046C97.3011 30.8178 97.4886 30.8985 97.696 30.9465C97.9039 30.995 98.1135 31.0186 98.3256 31.0186C98.5084 31.0186 98.689 31.004 98.8675 30.9748C99.0455 30.9456 99.2054 30.8942 99.3463 30.8204C99.4876 30.7462 99.6013 30.6476 99.6881 30.5232C99.775 30.3988 99.8186 30.2427 99.8186 30.0545C99.8143 29.8846 99.7719 29.741 99.6916 29.6243C99.6116 29.5081 99.5006 29.4103 99.3584 29.3306C99.2162 29.2512 99.0473 29.1843 98.852 29.1307C98.6571 29.0771 98.4432 29.0278 98.2107 28.9827C98.0098 28.945 97.8088 28.9034 97.6083 28.8584C97.4074 28.8138 97.2151 28.7593 97.031 28.6958C96.8469 28.6319 96.6754 28.556 96.5163 28.4685C96.3573 28.381 96.219 28.2743 96.1015 28.1477C95.9844 28.0217 95.8919 27.8724 95.8241 27.7013C95.7562 27.5298 95.7225 27.3286 95.7225 27.0979C95.7225 26.8762 95.7558 26.675 95.8224 26.4932C95.8889 26.3118 95.9809 26.1488 96.0985 26.0043C96.2156 25.8598 96.3552 25.7341 96.5163 25.6265C96.678 25.5188 96.8538 25.43 97.0444 25.3593C97.235 25.2889 97.4372 25.2362 97.6507 25.2015C97.8637 25.1667 98.0798 25.1496 98.2988 25.1496C98.6623 25.1496 98.9941 25.2002 99.2957 25.3005C99.5969 25.4013 99.8579 25.5446 100.079 25.729C100.3 25.9138 100.478 26.1372 100.611 26.3993C100.744 26.6613 100.824 26.9525 100.851 27.2729H99.7136C99.7002 27.1048 99.6561 26.9508 99.5818 26.811C99.507 26.6707 99.4068 26.5507 99.2802 26.4495C99.154 26.3487 99.0041 26.2702 98.8303 26.2144C98.6562 26.1583 98.4635 26.1304 98.2513 26.1304C98.0841 26.1304 97.9212 26.1458 97.7621 26.1776C97.6031 26.2089 97.461 26.2612 97.3356 26.3341C97.2103 26.4066 97.1092 26.5022 97.0327 26.621C96.9558 26.7398 96.9173 26.886 96.9173 27.061C96.9173 27.2068 96.9614 27.3278 97.0496 27.4238C97.1377 27.5203 97.2561 27.6018 97.4048 27.6691C97.5539 27.736 97.7271 27.7935 97.9246 27.8403C98.1221 27.8874 98.3291 27.9325 98.5456 27.9749C98.7513 28.0152 98.9544 28.0594 99.1553 28.1074C99.3558 28.1555 99.5472 28.2138 99.7287 28.2824C99.9106 28.3506 100.078 28.4329 100.232 28.529C100.385 28.6255 100.518 28.743 100.631 28.882C100.744 29.0209 100.832 29.1843 100.897 29.3726C100.961 29.5604 100.993 29.7804 100.993 30.0309C100.993 30.2663 100.956 30.4782 100.883 30.6677C100.81 30.8569 100.71 31.025 100.582 31.1712C100.454 31.3183 100.304 31.4444 100.132 31.5495C99.959 31.6546 99.7741 31.7408 99.5766 31.8081C99.3791 31.8754 99.1726 31.9247 98.957 31.956C98.7418 31.9874 98.5279 32.0019 98.3157 31.9998C97.9117 31.9998 97.5348 31.9548 97.1853 31.8651C96.8352 31.7755 96.5306 31.6331 96.2709 31.4371C96.0116 31.2407 95.8068 30.9881 95.6569 30.6776C95.5065 30.3675 95.4291 29.9914 95.4248 29.5506H96.5587Z" fill="#F38220"></path>
<path xmlns="http://www.w3.org/2000/svg" d="M109.584 25.2933L109.58 26.2878H105.897V27.9642H109.157L109.161 28.9622H105.897V30.8805H109.608V31.8613H104.706V25.2933H109.584Z" fill="#F38220"></path>
<path xmlns="http://www.w3.org/2000/svg" d="M112.916 26.2878V25.2933H118.116V26.2878H116.105V31.8613H114.913V26.2878H112.916Z" fill="#F38220"></path>
<path xmlns="http://www.w3.org/2000/svg" d="M8.91487 3.20994V18.0862H5.91162V0.432244H17.7704L17.7451 3.20994H8.91487Z" fill="#F38220"></path>
<path xmlns="http://www.w3.org/2000/svg" d="M21.2773 0.431646H24.2804V18.0862H21.2773V0.431646Z" fill="white"></path>
<path xmlns="http://www.w3.org/2000/svg" d="M41.5385 0.43165H44.5418V18.0862H41.2845L31.2069 5.20517V18.0862H28.2046V0.43165H31.2069L41.5385 13.6149V0.43165Z" fill="white"></path>
<path xmlns="http://www.w3.org/2000/svg" d="M59.1711 11.3171L55.9396 4.04342L52.7075 11.3171H59.1711ZM51.4864 14.0703L49.7043 18.0862H46.498L54.3363 0.431943H57.5426L65.3805 18.0862H62.1743L60.3931 14.0703H51.4864Z" fill="white"></path>
<path xmlns="http://www.w3.org/2000/svg" d="M81.1807 0.43165H84.1831V18.0862H80.9258L70.8491 5.20517V18.0862H67.8462V0.43165H70.8491L81.1807 13.6149V0.43165Z" fill="white"></path>
<path xmlns="http://www.w3.org/2000/svg" d="M93.9956 2.75263C93.1219 2.75263 92.4051 2.92988 91.8456 3.28292C91.2854 3.63714 91.0055 4.17156 91.0055 4.88648C91.0055 5.60258 91.2854 6.1491 91.8456 6.52838C92.4051 6.90796 93.5971 7.31556 95.4212 7.75384C97.2446 8.19152 98.6185 8.80557 99.5439 9.59688C100.468 10.3888 100.931 11.555 100.931 13.0948C100.931 14.6356 100.345 15.8858 99.1745 16.8455C98.0039 17.8052 96.4687 18.2854 94.5686 18.2854C91.7858 18.2854 89.3175 17.3345 87.1636 15.4316L89.0462 13.1833C90.8447 14.7329 92.7103 15.5065 94.6444 15.5065C95.6114 15.5065 96.3793 15.3009 96.9478 14.8877C97.516 14.4757 97.8001 13.928 97.8001 13.247C97.8001 12.5645 97.5329 12.0342 96.9989 11.6555C96.464 11.2768 95.5433 10.9321 94.2375 10.6203C92.9311 10.3083 91.9383 10.0222 91.2604 9.76116C90.5817 9.50074 89.9793 9.1592 89.4539 8.73862C88.4016 7.94731 87.8762 6.73484 87.8762 5.10149C87.8762 3.46873 88.4732 2.20965 89.6699 1.32632C90.8658 0.441814 92.3457 1.24775e-06 94.1109 1.24775e-06C95.2467 1.24775e-06 96.3751 0.18522 97.4949 0.555363C98.6146 0.925801 99.5816 1.44813 100.396 2.12088L98.7929 4.36976C98.2669 3.89757 97.5543 3.51002 96.6547 3.20712C95.7558 2.90481 94.8693 2.75263 93.9956 2.75263Z" fill="white"></path>
<path xmlns="http://www.w3.org/2000/svg" d="M104.646 0.431646H107.65V18.0862H104.646V0.431646Z" fill="white"></path>
<path xmlns="http://www.w3.org/2000/svg" d="M122.791 11.3171L119.559 4.04342L116.327 11.3171H122.791ZM115.105 14.0703L113.324 18.0862H110.118L117.955 0.431943H121.162L129 18.0862H125.793L124.012 14.0703H115.105Z" fill="white"></path>
<path xmlns="http://www.w3.org/2000/svg" d="M16.9215 6.5031C16.8478 6.55353 16.7747 6.60308 16.6995 6.6544C16.6623 6.67091 16.6139 6.73196 16.5512 6.80658C16.8463 6.59836 17.1403 6.37981 17.4295 6.16687C17.5945 6.05656 17.7601 5.94773 17.9238 5.83566C17.7645 5.92768 17.6025 6.02471 17.4393 6.12676C17.2767 6.22969 17.1118 6.33469 16.9459 6.44234C16.8196 6.53259 16.693 6.62225 16.5657 6.71043C16.4385 6.79832 16.3122 6.88857 16.1841 6.97499C16.4323 6.81986 16.6772 6.66177 16.9215 6.5031Z" fill="white"></path>
<path xmlns="http://www.w3.org/2000/svg" d="M12.9033 8.2648C13.0062 8.21112 13.1093 8.15774 13.2106 8.10376C13.2748 8.0781 13.339 8.05186 13.4029 8.02826C13.2374 8.10996 13.0706 8.18871 12.9033 8.2648ZM6.14885 10.1831C6.19491 10.1742 6.24127 10.1651 6.28674 10.1559C6.31289 10.1415 6.34261 10.1306 6.40115 10.1335C6.61214 10.0919 6.80798 10.0583 6.95449 10.0465C7.09446 10.0377 7.23175 10.0208 7.36667 9.9999C7.50129 9.97748 7.63294 9.94652 7.76251 9.9182C8.02194 9.86334 8.27008 9.79404 8.51317 9.75953C8.6264 9.74095 8.60054 9.76189 8.54408 9.78961C8.57469 9.78224 8.6053 9.77486 8.6362 9.7672C8.81421 9.69789 8.99281 9.62917 9.17795 9.57755C9.28167 9.55248 9.38419 9.52152 9.48672 9.49232C9.58924 9.46312 9.69177 9.43422 9.7937 9.40531C9.83293 9.39292 9.87245 9.38024 9.91197 9.36785C9.89236 9.37493 9.87245 9.38172 9.85284 9.38879C9.9833 9.35163 10.1123 9.30857 10.2418 9.26935C10.3708 9.22806 10.5007 9.19266 10.6282 9.14695C10.8187 9.08147 11.0086 9.01806 11.1976 8.95082C11.1479 8.97353 11.0983 8.99624 11.0487 9.01895C10.4392 9.26079 9.82371 9.47197 9.20351 9.6389C9.26384 9.60587 9.33308 9.57372 9.40826 9.54157C9.28077 9.5864 9.1515 9.6212 9.02312 9.65896C8.89415 9.69553 8.76547 9.73357 8.6362 9.7672C8.55864 9.79639 8.48137 9.82559 8.40381 9.85479C8.43115 9.84034 8.49772 9.81291 8.54408 9.78961C7.7423 9.99223 6.93517 10.122 6.15538 10.2075C6.21809 10.1978 6.24721 10.1789 6.27515 10.1627C6.23324 10.1695 6.19134 10.1763 6.14885 10.1831C6.03592 10.2016 5.9221 10.2187 5.81215 10.2323C5.9227 10.2096 6.03592 10.1972 6.14885 10.1831M12.0496 8.03858C12.1188 8.02177 12.1851 8.00614 12.2504 7.99051C12.3152 7.97222 12.3785 7.95128 12.4415 7.9209C13.1259 7.57406 13.8157 7.21513 14.429 6.85354L14.0599 7.06648L13.8754 7.17295L13.6897 7.2747C13.876 7.17472 14.0466 7.07857 14.2201 6.98803C14.3943 6.89807 14.569 6.80753 14.7607 6.70872C14.6897 6.77597 14.5488 6.85383 14.4528 6.9199C14.3785 6.95853 14.3075 6.99658 14.2463 7.03256C14.2469 7.03079 14.3604 7.001 14.3616 6.99894C13.4564 7.5133 12.5176 7.92621 11.5964 8.25507C11.7643 8.12883 11.9114 8.07368 12.0496 8.03858M13.8231 8.084C13.8709 8.05392 13.9212 8.02413 13.9681 7.99375L13.8124 8.09138C13.816 8.08902 13.8195 8.08666 13.8231 8.084ZM15.281 7.95099C15.3241 7.91913 15.366 7.88699 15.407 7.85336C15.2528 7.93359 15.0983 8.02649 14.944 8.12176C14.8623 8.15744 14.7797 8.19401 14.7203 8.22203C14.6867 8.25831 14.7298 8.24386 14.7669 8.23059C14.6192 8.3232 14.4724 8.41404 14.3262 8.49839C14.2986 8.50723 14.2769 8.51225 14.2733 8.50606C14.3209 8.43085 14.4501 8.32821 14.5541 8.23265C14.9307 7.99552 15.2965 7.74542 15.6406 7.48116C15.1952 7.764 14.7467 8.03947 14.2796 8.27689C14.3672 8.23177 14.4644 8.16659 14.5598 8.10435C14.509 8.13473 14.4596 8.16334 14.4094 8.19342C14.5039 8.13562 14.5981 8.0781 14.6908 8.01646C14.6745 8.0259 14.6585 8.03504 14.6421 8.04448C14.5405 8.10612 14.4421 8.1657 14.3536 8.22646C14.3455 8.23118 14.3372 8.23589 14.3292 8.24061C14.4082 8.18782 14.4888 8.13178 14.5726 8.06837C14.6154 8.03799 14.6261 8.02708 14.6189 8.02649C14.6938 7.97458 14.7684 7.92297 14.8415 7.8687C14.9607 7.78671 15.0302 7.72743 15.0644 7.68791C15.0989 7.64868 15.0983 7.62951 15.0769 7.62479C15.0656 7.62243 15.0475 7.62449 15.0261 7.62951C15.2567 7.49915 15.4849 7.36731 15.7087 7.23105C15.7553 7.19654 15.8011 7.16115 15.8457 7.12458C15.5532 7.27647 15.2602 7.46671 14.9696 7.64721C14.9191 7.66579 14.8611 7.6938 14.81 7.72536C14.805 7.72861 14.8002 7.73156 14.7949 7.7348C14.8163 7.71534 14.8365 7.69616 14.8558 7.67699C15.1223 7.49089 15.3847 7.29889 15.6382 7.09833C15.7298 7.04259 15.8228 6.98803 15.9131 6.9314C15.9619 6.89424 16.0091 6.85678 16.0555 6.81755C15.9711 6.86297 15.8864 6.91341 15.802 6.96384C15.9018 6.88244 16.0032 6.80251 16.1003 6.71905C15.6145 7.06412 15.1259 7.40005 14.6168 7.68938C14.7125 7.63423 14.818 7.55519 14.9223 7.47909C14.7521 7.59264 14.5868 7.70295 14.4195 7.81148C14.2519 7.91855 14.0825 8.02649 13.9048 8.13975C13.9054 8.13827 13.9069 8.13621 13.9081 8.13444C13.7913 8.2064 13.6736 8.27571 13.5556 8.34384C13.5571 8.34089 13.5571 8.33912 13.5583 8.33617C13.6068 8.26834 13.67 8.2067 13.7426 8.14682C13.7562 8.13916 13.7696 8.1309 13.7833 8.12323C13.862 8.07899 13.9637 8.00172 14.0671 7.92385C14.076 7.91855 14.0834 7.91353 14.0923 7.90822C14.1509 7.87136 14.2127 7.83419 14.2772 7.79497C14.1506 7.90704 13.9411 8.07663 13.9081 8.13444C14.0849 8.02384 14.3357 7.81797 14.5702 7.6124C14.687 7.53719 14.8088 7.45579 14.9366 7.35905C14.9366 7.35876 14.9369 7.35876 14.9369 7.35846C15.4168 7.0538 15.8828 6.73055 16.3182 6.38636C15.9066 6.65563 15.4926 6.91754 15.0668 7.15555C15.1702 7.05498 15.2255 6.99628 15.1952 7.01752C15.1298 7.06323 15.065 7.10895 15.0005 7.15407C15.029 7.12871 15.0582 7.10305 15.0876 7.07739C15.1978 6.99982 15.3069 6.92049 15.4148 6.83849C15.5494 6.74293 15.6275 6.67451 15.6662 6.6285C15.7051 6.58308 15.7042 6.56096 15.6801 6.55565C15.6787 6.55536 15.676 6.55624 15.6745 6.55595C15.9185 6.4132 16.1601 6.26868 16.3972 6.12033C16.4501 6.07963 16.5015 6.03893 16.5521 5.99646C16.2454 6.16073 15.9381 6.36306 15.6326 6.55919C15.5672 6.57276 15.4638 6.61818 15.3782 6.67333C15.2391 6.76299 15.1018 6.85324 14.9645 6.93671C14.8267 7.01958 14.6905 7.10158 14.555 7.18298C14.2825 7.33929 14.0142 7.49177 13.7458 7.63423C13.679 7.6705 13.6121 7.70649 13.5455 7.74276C13.4787 7.77757 13.4118 7.81237 13.3449 7.84688C13.2115 7.91589 13.0793 7.98962 12.9455 8.05569C12.8121 8.12352 12.6793 8.19313 12.5461 8.26332C12.4124 8.33027 12.2787 8.39929 12.1452 8.47037C12.0219 8.5444 11.895 8.60751 11.7687 8.67476C11.7173 8.7013 11.6659 8.72785 11.6142 8.7541C11.5616 8.77445 11.5096 8.79598 11.4567 8.81515C11.3179 8.86588 11.1806 8.92162 11.0415 8.96586C10.9025 9.01157 10.764 9.05611 10.6264 9.09858C10.8041 9.01334 10.9913 8.93224 11.1824 8.847C11.3732 8.75881 11.5696 8.67505 11.7675 8.5907C11.6392 8.64261 11.509 8.69098 11.3791 8.7423C11.249 8.79244 11.1194 8.84582 10.988 8.89065C10.7854 8.94964 10.5839 9.01216 10.4392 9.02868C10.6968 8.94757 10.9099 8.86647 11.1069 8.77622C10.8867 8.85054 10.6653 8.92722 10.4412 8.99889C10.3289 9.03251 10.216 9.06643 10.1028 9.10035C9.98954 9.13368 9.87631 9.16966 9.76101 9.19827C9.88612 9.16582 10.0109 9.1204 10.1372 9.07764C10.2635 9.0334 10.3904 8.98857 10.5176 8.94374C10.6442 8.89596 10.7708 8.84936 10.8974 8.80689C10.9607 8.78536 11.024 8.7653 11.087 8.74613C11.1497 8.72578 11.2124 8.70573 11.2748 8.68803C11.2198 8.7187 11.164 8.7479 11.1069 8.77622C11.9013 8.49278 12.6659 8.15715 13.4127 7.77108C13.3057 7.79939 13.1895 7.84599 13.068 7.90262C13.0071 7.93093 12.9446 7.9619 12.8813 7.99405C12.8178 8.02531 12.7533 8.05687 12.6879 8.08902C12.5577 8.15331 12.4261 8.21967 12.2962 8.27748C12.1657 8.33234 12.0377 8.38041 11.9164 8.41315C12.7393 8.02885 13.5978 7.60621 14.4379 7.12783C15.2778 6.64974 16.0965 6.11295 16.8385 5.52662C16.2899 5.88526 15.7381 6.23447 15.1625 6.53589C15.2706 6.47867 15.3898 6.39609 15.5075 6.31734C15.3152 6.43532 15.1286 6.55005 14.9396 6.66301C14.8891 6.6925 14.8302 6.72435 14.7678 6.75709C15.139 6.5297 15.503 6.28608 15.854 6.01916C16.0005 5.91505 16.1479 5.80475 16.1901 5.75461C16.2323 5.70506 16.3488 5.61805 16.3223 5.61215C16.235 5.69031 16.0365 5.77643 15.9155 5.854C15.7642 5.95192 15.5812 6.03155 15.4314 6.12239C15.2813 6.21264 15.065 6.30584 14.9176 6.39432C14.6207 6.5645 14.3283 6.73084 14.0362 6.88598C13.9631 6.9255 13.8906 6.96473 13.818 7.00425C13.7449 7.042 13.6721 7.08005 13.5993 7.1178C13.4537 7.19271 13.3099 7.27293 13.164 7.34519C13.0186 7.41893 12.8739 7.49472 12.7289 7.57141C12.5833 7.64426 12.4377 7.71946 12.2923 7.79674C12.1577 7.87755 12.0195 7.94627 11.8819 8.01941C11.7444 8.09079 11.6059 8.16334 11.465 8.22646C11.3244 8.29075 11.1836 8.35505 11.0424 8.41964C10.8998 8.47892 10.7574 8.53791 10.6148 8.59719C10.4513 8.65382 10.2475 8.76914 10.068 8.82724C9.97824 8.85644 9.8671 8.90923 9.79251 8.93548C9.71762 8.96025 9.61926 9.01069 9.57201 9.03015C9.44838 9.0856 9.35745 9.10772 9.23144 9.16405C9.10514 9.2195 8.95061 9.26551 8.82075 9.31831C8.56221 9.42596 8.3099 9.49261 8.03769 9.5867C7.49178 9.76248 6.964 9.87249 6.364 9.97336C5.29031 10.1391 4.12895 10.2373 3.01603 10.2008C2.87695 10.1963 2.73876 10.1857 2.60147 10.1772C2.46417 10.1677 2.32807 10.1592 2.19375 10.1441C1.9251 10.1149 1.66358 10.076 1.41336 10.0182C0.913218 9.90493 0.45854 9.71145 0.096581 9.44011C0.239225 9.57018 0.469535 9.69789 0.709653 9.80259C0.94977 9.90906 1.1997 9.99135 1.37295 10.076C1.33015 10.0807 1.28736 10.0857 1.24457 10.0893C1.31649 10.1539 1.58929 10.2252 1.73015 10.2718C1.66537 10.2813 1.59494 10.258 1.5251 10.2314C1.59494 10.2574 1.59494 10.2568 1.66537 10.2816C1.58186 10.2733 1.4942 10.2721 1.40415 10.2712C1.20683 10.2022 0.988701 10.1574 0.83209 10.0801C0.935507 10.1574 1.05973 10.217 1.19375 10.2671C1.05705 10.2612 0.917379 10.2462 0.778895 10.1993C0.244575 10.0999 0.172064 9.85155 0.202376 9.94327C0.232391 10.0356 0.479343 10.1804 0.813071 10.2966C1.1462 10.414 1.56255 10.4957 1.91173 10.5567C1.78751 10.5638 1.65824 10.5582 1.52659 10.5464C1.51886 10.5438 1.51054 10.5411 1.50281 10.5385C1.22287 10.4444 1.0199 10.3562 1.04754 10.4405C1.05111 10.4509 1.05764 10.4621 1.06656 10.4739C1.02852 10.4653 0.990187 10.4582 0.952148 10.4488C0.62377 10.3665 0.299255 10.2471 0 10.122C0.0799401 10.1783 0.136998 10.2299 0.214857 10.281L0.190489 10.2733C0.43655 10.4107 0.663294 10.5429 0.883798 10.6514C0.922431 10.6706 0.960172 10.6889 0.99821 10.7074C1.05883 10.7529 1.1257 10.7971 1.23565 10.8428C1.31827 10.8773 1.40148 10.9086 1.48498 10.9378C3.07992 11.666 4.12717 11.8462 6.78985 11.8462C9.30306 11.8462 12.8834 10.0943 13.4148 9.70467C13.4995 9.64686 13.418 9.65129 13.303 9.66898C13.3051 9.6678 13.3075 9.66633 13.3096 9.66515C13.4576 9.57165 13.5839 9.49025 13.6736 9.4295C13.9993 9.21301 13.7212 9.43009 13.2706 9.45103C13.295 9.43923 13.3194 9.42743 13.3438 9.41563C13.4745 9.34898 13.605 9.28232 13.7357 9.21596C13.8665 9.15049 13.9949 9.07823 14.125 9.0101C14.0228 9.05109 13.9405 9.09298 13.8522 9.11126C13.6698 9.21655 13.498 9.30592 13.2674 9.45132C13.2659 9.45132 13.2644 9.45103 13.2629 9.45132C13.3081 9.42212 13.3559 9.39322 13.4076 9.36314C13.5987 9.24664 13.8347 9.1207 14.0935 8.92988C14.1069 8.92103 14.1158 8.91424 14.1226 8.90894C14.1732 8.88092 14.2237 8.8526 14.2745 8.82517C14.172 8.86794 14.0754 8.90009 13.9862 8.92014C14.0011 8.90274 14.0171 8.88505 14.0365 8.86617C14.1405 8.80246 14.2448 8.73964 14.347 8.67181C14.3322 8.68036 14.3173 8.68891 14.3021 8.69747C14.21 8.75351 14.1209 8.80777 14.0403 8.86263C14.1295 8.77622 14.2573 8.678 14.3521 8.58598C14.1527 8.69334 13.953 8.80069 13.7533 8.90805C13.7467 8.9113 13.7405 8.91483 13.7342 8.91808C13.7232 8.91955 13.7114 8.92132 13.6998 8.92339C13.8784 8.80187 14.0674 8.67741 14.3642 8.51284C14.5601 8.40194 14.4264 8.46476 14.3363 8.49514C14.6576 8.31789 14.9732 8.13827 15.281 7.95099" fill="white"></path>
<path xmlns="http://www.w3.org/2000/svg" d="M16.4912 6.63321C16.8815 6.38016 17.2646 6.12858 17.6353 5.90531C17.2611 6.12002 16.8714 6.37396 16.4912 6.63321Z" fill="white"></path>
<path xmlns="http://www.w3.org/2000/svg" d="M16.814 5.50041L17.5588 5.03147C17.3395 5.1574 17.1157 5.15032 16.814 5.50041Z" fill="white"></path>
<path xmlns="http://www.w3.org/2000/svg" d="M13.0359 9.99357C12.9247 10.0458 12.8091 10.1003 12.6964 10.1534C12.5838 10.2068 12.4726 10.2534 12.3745 10.3024L12.376 10.305C12.6248 10.1959 12.867 10.0762 13.1093 9.95906C13.2294 9.89772 13.3492 9.83667 13.469 9.77562C13.5893 9.71545 13.707 9.64938 13.8265 9.58686C13.7329 9.62431 13.6443 9.65322 13.5635 9.67003C13.455 9.77178 13.2564 9.88386 13.0359 9.99357Z" fill="white"></path>
<path xmlns="http://www.w3.org/2000/svg" d="M16.1919 6.80507C16.2799 6.75198 16.3682 6.69889 16.4567 6.64551C16.411 6.6638 16.3699 6.67589 16.3358 6.67854C16.2891 6.72367 16.2415 6.76643 16.1919 6.80507Z" fill="white"></path>
<path xmlns="http://www.w3.org/2000/svg" d="M16.1971 7.53061C16.0853 7.60848 15.9733 7.68545 15.8606 7.76096C15.748 7.83676 15.6362 7.91432 15.5229 7.98865C16.0446 7.67189 16.557 7.34628 17.0624 7.00946C16.9215 7.08851 16.7782 7.17168 16.6337 7.25957C16.4899 7.34775 16.3439 7.4383 16.1971 7.53061Z" fill="white"></path>
<path xmlns="http://www.w3.org/2000/svg" d="M17.8185 5.9608C17.3391 6.31059 16.8035 6.68133 16.2791 7.05973C16.085 7.19274 15.8725 7.20513 15.6255 7.45937C16.3377 7.04056 17.0662 6.58695 17.7719 6.0835C17.8043 6.01861 18.0034 5.90211 18.0816 5.81451C17.7787 6.00593 17.5308 6.1708 17.2431 6.37813L17.8185 5.9608Z" fill="white"></path>
<path xmlns="http://www.w3.org/2000/svg" d="M18.8793 5.29052C18.8134 5.3324 18.7429 5.38608 18.6719 5.44182C18.7399 5.39227 18.8086 5.34213 18.8793 5.29052Z" fill="white"></path>
<path xmlns="http://www.w3.org/2000/svg" d="M19.7344 4.0141C19.8111 3.95659 19.8889 3.89819 19.9686 3.83832C19.8943 3.88698 19.8149 3.94951 19.7344 4.0141Z" fill="white"></path>
<path xmlns="http://www.w3.org/2000/svg" d="M16.5776 7.95349C16.6888 7.8771 16.7997 7.79688 16.9085 7.71902C16.8184 7.77594 16.7257 7.83788 16.6297 7.90158C16.6166 7.90719 16.5996 7.92813 16.5776 7.95349Z" fill="white"></path>
<path xmlns="http://www.w3.org/2000/svg" d="M18.1219 5.10412L18.2137 5.0354C18.2185 5.03275 18.2232 5.0298 18.2277 5.02685C18.1926 5.0528 18.1581 5.07728 18.1219 5.10412ZM18.222 5.0295L18.7719 4.61896C18.5865 4.75816 18.3921 4.90121 18.1947 5.04543C17.8107 5.26988 17.4135 5.52824 17.025 5.79309C17.4186 5.53797 17.8047 5.28521 18.1804 5.05605C17.8059 5.33004 17.4177 5.61112 17.0331 5.89661C16.8137 6.05116 16.5732 6.0665 16.2944 6.36172C16.6684 6.13521 17.0465 5.89897 17.4236 5.65329C17.3184 5.7285 17.2129 5.80341 17.1068 5.87685C16.968 5.973 16.8304 6.07121 16.691 6.165C17.3333 5.7633 17.964 5.35098 18.5862 4.92392C18.4126 5.0242 18.236 5.13008 18.0586 5.24127C17.9405 5.31559 17.8205 5.39316 17.7007 5.46984C18.0428 5.24245 18.3837 5.00797 18.7199 4.76111C18.7562 4.68591 18.9812 4.55024 19.0695 4.44878C18.7678 4.64461 18.513 4.81892 18.2348 5.02184C18.2307 5.0242 18.2262 5.02685 18.222 5.0295Z" fill="white"></path>
<path xmlns="http://www.w3.org/2000/svg" d="M17.3809 6.93202C17.5066 6.84325 17.6317 6.74975 17.7548 6.6595C17.6528 6.72557 17.5479 6.79783 17.4397 6.87186C17.4249 6.87834 17.4055 6.90253 17.3809 6.93202Z" fill="white"></path>
<path xmlns="http://www.w3.org/2000/svg" d="M14.4931 9.22496C14.5912 9.16922 14.6893 9.11348 14.7883 9.05744C14.686 9.10404 14.5835 9.14857 14.4839 9.19576C14.4889 9.20343 14.5086 9.20549 14.4931 9.22496Z" fill="white"></path>
<path xmlns="http://www.w3.org/2000/svg" d="M15.9639 7.84998C16.0444 7.80131 16.1256 7.75265 16.207 7.70339C16.1651 7.7202 16.1273 7.73141 16.0961 7.73377C16.053 7.77536 16.0096 7.81429 15.9639 7.84998Z" fill="white"></path>
<path xmlns="http://www.w3.org/2000/svg" d="M15.2789 7.80701C15.3996 7.73652 15.6724 7.58286 15.7943 7.51178C15.6683 7.57106 15.5419 7.62769 15.4189 7.68785C15.1719 7.80701 15.2976 7.78253 15.2789 7.80701Z" fill="white"></path>
<path xmlns="http://www.w3.org/2000/svg" d="M15.7905 7.69373C16.1359 7.47606 16.4751 7.25988 16.8029 7.06817C16.4718 7.2528 16.127 7.47075 15.7905 7.69373Z" fill="white"></path>
<path xmlns="http://www.w3.org/2000/svg" d="M15.3635 8.20776C15.2479 8.26203 15.132 8.31423 15.019 8.36938C15.0247 8.37794 15.047 8.38029 15.0297 8.40271C15.1406 8.33812 15.2518 8.27323 15.3635 8.20776Z" fill="white"></path>
<path xmlns="http://www.w3.org/2000/svg" d="M15.3262 8.74644C15.3975 8.70456 15.4691 8.66268 15.5414 8.62051C15.5042 8.63496 15.4709 8.6444 15.4433 8.64646C15.4049 8.68215 15.3666 8.71577 15.3262 8.74644Z" fill="white"></path>
</svg>